<svg xmlns="http://www.w3.org/2000/svg" xmlns:xlink="http://www.w3.org/1999/xlink" width="1920" zoomAndPan="magnify" viewBox="0 0 1440 809.999993" height="1080" preserveAspectRatio="xMidYMid meet" version="1.0"><defs><g/><clipPath id="830436c4d5"><path d="M 411.953125 275.707031 L 547.339844 275.707031 L 547.339844 459.136719 L 411.953125 459.136719 Z M 411.953125 275.707031 " clip-rule="nonzero"/></clipPath></defs><g clip-path="url(#830436c4d5)"><path fill="#ffffff" d="M 515.261719 321.917969 C 499.769531 299.4375 484.070312 280.933594 483.929688 280.746094 L 479.621094 275.707031 L 475.335938 280.746094 C 475.171875 280.933594 459.472656 299.4375 443.984375 321.894531 C 422.75 352.707031 411.992188 376.132812 411.992188 391.503906 C 411.992188 409.558594 419.03125 426.554688 431.8125 439.3125 C 444.59375 452.097656 461.566406 459.136719 479.644531 459.136719 C 497.699219 459.136719 514.695312 452.097656 527.476562 439.3125 C 540.257812 426.53125 547.296875 409.558594 547.296875 391.480469 C 547.25 376.132812 536.492188 352.707031 515.261719 321.917969 Z M 479.621094 447.859375 C 448.550781 447.859375 423.269531 422.578125 423.269531 391.503906 C 423.269531 382.558594 428.472656 364.335938 453.210938 328.390625 C 463.542969 313.394531 473.972656 300.1875 479.621094 293.246094 C 485.269531 300.164062 495.652344 313.324219 505.984375 328.296875 C 514.835938 341.148438 521.875 352.753906 526.886719 362.832031 C 532.914062 374.929688 535.976562 384.558594 535.976562 391.503906 C 536 422.578125 510.695312 447.859375 479.621094 447.859375 Z M 479.621094 447.859375 " fill-opacity="1" fill-rule="nonzero"/></g><path fill="#ffffff" d="M 484.140625 323.917969 C 486 321.421875 485.507812 317.890625 483.011719 316.03125 C 480.515625 314.171875 476.984375 314.667969 475.125 317.164062 C 464.15625 331.757812 454.199219 346.707031 447.066406 359.207031 C 438.640625 374.035156 434.542969 384.582031 434.542969 391.503906 C 434.542969 416.363281 454.765625 436.582031 479.621094 436.582031 C 482.730469 436.582031 485.246094 434.0625 485.246094 430.957031 C 485.246094 427.851562 482.730469 425.332031 479.621094 425.332031 C 460.980469 425.332031 445.796875 410.171875 445.796875 391.503906 C 445.796875 389.3125 446.878906 382.324219 456.859375 364.785156 C 463.757812 352.660156 473.429688 338.160156 484.140625 323.917969 Z M 484.140625 323.917969 " fill-opacity="1" fill-rule="nonzero"/><g fill="#ffffff" fill-opacity="1"><g transform="translate(235.341045, 443.408703)"><g><path d="M 103.765625 -32.703125 L 46.4375 -32.703125 L 35.53125 0 L 0.765625 0 L 59.84375 -158.6875 L 90.140625 -158.6875 L 149.546875 0 L 114.765625 0 Z M 55.265625 -59.1875 L 94.9375 -59.1875 L 74.984375 -118.578125 Z M 55.265625 -59.1875 "/></g></g></g><g fill="#ffffff" fill-opacity="1"><g transform="translate(410.739377, 443.408703)"><g/></g></g><g fill="#ffffff" fill-opacity="1"><g transform="translate(491.548031, 443.408703)"><g/></g></g><g fill="#ffffff" fill-opacity="1"><g transform="translate(572.353337, 443.408703)"><g><path d="M 134.28125 -158.6875 L 134.28125 -54.171875 C 134.28125 -36.804688 128.847656 -23.070312 117.984375 -12.96875 C 107.117188 -2.863281 92.28125 2.1875 73.46875 2.1875 C 54.9375 2.1875 40.21875 -2.71875 29.3125 -12.53125 C 18.414062 -22.34375 12.859375 -35.820312 12.640625 -52.96875 L 12.640625 -158.6875 L 45.34375 -158.6875 L 45.34375 -53.953125 C 45.34375 -43.554688 47.828125 -35.976562 52.796875 -31.21875 C 57.773438 -26.46875 64.664062 -24.09375 73.46875 -24.09375 C 91.84375 -24.09375 101.175781 -33.753906 101.46875 -53.078125 L 101.46875 -158.6875 Z M 134.28125 -158.6875 "/></g></g></g><g fill="#ffffff" fill-opacity="1"><g transform="translate(744.495604, 443.408703)"><g><path d="M 109.640625 -68.78125 L 46.875 -68.78125 L 46.875 -26.265625 L 120.546875 -26.265625 L 120.546875 0 L 14.171875 0 L 14.171875 -158.6875 L 120.328125 -158.6875 L 120.328125 -132.203125 L 46.875 -132.203125 L 46.875 -94.390625 L 109.640625 -94.390625 Z M 109.640625 -68.78125 "/></g></g></g><g fill="#ffffff" fill-opacity="1"><g transform="translate(895.275832, 443.408703)"><g><path d="M 134.28125 -158.6875 L 134.28125 -54.171875 C 134.28125 -36.804688 128.847656 -23.070312 117.984375 -12.96875 C 107.117188 -2.863281 92.28125 2.1875 73.46875 2.1875 C 54.9375 2.1875 40.21875 -2.71875 29.3125 -12.53125 C 18.414062 -22.34375 12.859375 -35.820312 12.640625 -52.96875 L 12.640625 -158.6875 L 45.34375 -158.6875 L 45.34375 -53.953125 C 45.34375 -43.554688 47.828125 -35.976562 52.796875 -31.21875 C 57.773438 -26.46875 64.664062 -24.09375 73.46875 -24.09375 C 91.84375 -24.09375 101.175781 -33.753906 101.46875 -53.078125 L 101.46875 -158.6875 Z M 134.28125 -158.6875 "/></g></g></g><g fill="#ffffff" fill-opacity="1"><g transform="translate(1067.418109, 443.408703)"><g><path d="M 96.453125 -41.640625 C 96.453125 -47.816406 94.269531 -52.554688 89.90625 -55.859375 C 85.550781 -59.160156 77.707031 -62.644531 66.375 -66.3125 C 55.039062 -69.988281 46.066406 -73.609375 39.453125 -77.171875 C 21.429688 -86.898438 12.421875 -100.015625 12.421875 -116.515625 C 12.421875 -125.085938 14.835938 -132.734375 19.671875 -139.453125 C 24.503906 -146.179688 31.441406 -151.429688 40.484375 -155.203125 C 49.535156 -158.984375 59.691406 -160.875 70.953125 -160.875 C 82.285156 -160.875 92.382812 -158.820312 101.25 -154.71875 C 110.113281 -150.613281 117 -144.816406 121.90625 -137.328125 C 126.8125 -129.847656 129.265625 -121.347656 129.265625 -111.828125 L 96.5625 -111.828125 C 96.5625 -119.097656 94.269531 -124.75 89.6875 -128.78125 C 85.113281 -132.8125 78.6875 -134.828125 70.40625 -134.828125 C 62.414062 -134.828125 56.203125 -133.132812 51.765625 -129.75 C 47.335938 -126.375 45.125 -121.925781 45.125 -116.40625 C 45.125 -111.25 47.71875 -106.925781 52.90625 -103.4375 C 58.101562 -99.945312 65.753906 -96.675781 75.859375 -93.625 C 94.460938 -88.03125 108.015625 -81.085938 116.515625 -72.796875 C 125.015625 -64.515625 129.265625 -54.203125 129.265625 -41.859375 C 129.265625 -28.117188 124.066406 -17.34375 113.671875 -9.53125 C 103.285156 -1.71875 89.300781 2.1875 71.71875 2.1875 C 59.507812 2.1875 48.390625 -0.046875 38.359375 -4.515625 C 28.335938 -8.984375 20.691406 -15.101562 15.421875 -22.875 C 10.148438 -30.65625 7.515625 -39.671875 7.515625 -49.921875 L 40.328125 -49.921875 C 40.328125 -32.410156 50.789062 -23.65625 71.71875 -23.65625 C 79.488281 -23.65625 85.550781 -25.234375 89.90625 -28.390625 C 94.269531 -31.554688 96.453125 -35.972656 96.453125 -41.640625 Z M 96.453125 -41.640625 "/></g></g></g><g fill="#ffffff" fill-opacity="1"><g transform="translate(488.638372, 580.465328)"><g><path d="M 40.921875 -107.25 L 27.203125 -107.25 L 4.921875 -132.640625 L 24.171875 -132.640625 Z M 40.921875 -107.25 "/></g></g></g></svg>