<svg xmlns="http://www.w3.org/2000/svg" xmlns:xlink="http://www.w3.org/1999/xlink" width="1920" zoomAndPan="magnify" viewBox="0 0 1440 809.999993" height="1080" preserveAspectRatio="xMidYMid meet" version="1.0"><defs><g/><clipPath id="f30236dd27"><path d="M 280.070312 278.632812 L 473.421875 278.632812 L 473.421875 540.589844 L 280.070312 540.589844 Z M 280.070312 278.632812 " clip-rule="nonzero"/></clipPath></defs><g clip-path="url(#f30236dd27)"><path fill="#ffffff" d="M 427.609375 344.625 C 405.488281 312.519531 383.066406 286.09375 382.863281 285.828125 L 376.710938 278.632812 L 370.59375 285.828125 C 370.359375 286.09375 347.9375 312.519531 325.816406 344.589844 C 295.496094 388.597656 280.132812 422.050781 280.132812 444 C 280.132812 469.789062 290.183594 494.058594 308.4375 512.28125 C 326.691406 530.535156 350.929688 540.589844 376.746094 540.589844 C 402.53125 540.589844 426.800781 530.535156 445.054688 512.28125 C 463.308594 494.027344 473.359375 469.789062 473.359375 443.96875 C 473.292969 422.050781 457.929688 388.597656 427.609375 344.625 Z M 376.710938 524.484375 C 332.339844 524.484375 296.234375 488.378906 296.234375 444 C 296.234375 431.226562 303.664062 405.207031 338.996094 353.871094 C 353.753906 332.457031 368.644531 313.59375 376.710938 303.679688 C 384.78125 313.5625 399.605469 332.355469 414.363281 353.734375 C 427.003906 372.089844 437.054688 388.664062 444.214844 403.054688 C 452.820312 420.335938 457.191406 434.085938 457.191406 444 C 457.222656 488.378906 421.085938 524.484375 376.710938 524.484375 Z M 376.710938 524.484375 " fill-opacity="1" fill-rule="nonzero"/></g><path fill="#ffffff" d="M 383.167969 347.484375 C 385.824219 343.917969 385.117188 338.875 381.554688 336.21875 C 377.988281 333.566406 372.949219 334.269531 370.292969 337.835938 C 354.625 358.679688 340.40625 380.027344 330.21875 397.878906 C 318.1875 419.058594 312.335938 434.117188 312.335938 444 C 312.335938 479.503906 341.214844 508.382812 376.710938 508.382812 C 381.148438 508.382812 384.746094 504.785156 384.746094 500.347656 C 384.746094 495.910156 381.148438 492.3125 376.710938 492.3125 C 350.089844 492.3125 328.40625 470.660156 328.40625 444 C 328.40625 440.875 329.953125 430.890625 344.207031 405.84375 C 354.054688 388.53125 367.871094 367.820312 383.167969 347.484375 Z M 383.167969 347.484375 " fill-opacity="1" fill-rule="nonzero"/><g fill="#ffffff" fill-opacity="1"><g transform="translate(27.851664, 518.128929)"><g><path d="M 148.1875 -46.703125 L 66.3125 -46.703125 L 50.75 0 L 1.09375 0 L 85.453125 -226.640625 L 128.734375 -226.640625 L 213.5625 0 L 163.90625 0 Z M 78.921875 -84.515625 L 135.578125 -84.515625 L 107.09375 -169.359375 Z M 78.921875 -84.515625 "/></g></g></g><g fill="#ffffff" fill-opacity="1"><g transform="translate(278.340542, 518.128929)"><g/></g></g><g fill="#ffffff" fill-opacity="1"><g transform="translate(393.744543, 518.128929)"><g/></g></g><g fill="#ffffff" fill-opacity="1"><g transform="translate(509.143762, 518.128929)"><g><path d="M 191.765625 -226.640625 L 191.765625 -77.359375 C 191.765625 -52.554688 184.003906 -32.941406 168.484375 -18.515625 C 152.972656 -4.097656 131.78125 3.109375 104.90625 3.109375 C 78.445312 3.109375 57.429688 -3.890625 41.859375 -17.890625 C 26.296875 -31.898438 18.363281 -51.148438 18.0625 -75.640625 L 18.0625 -226.640625 L 64.75 -226.640625 L 64.75 -77.046875 C 64.75 -62.210938 68.300781 -51.394531 75.40625 -44.59375 C 82.519531 -37.800781 92.351562 -34.40625 104.90625 -34.40625 C 131.164062 -34.40625 144.503906 -48.203125 144.921875 -75.796875 L 144.921875 -226.640625 Z M 191.765625 -226.640625 "/></g></g></g><g fill="#ffffff" fill-opacity="1"><g transform="translate(754.982608, 518.128929)"><g><path d="M 156.59375 -98.21875 L 66.9375 -98.21875 L 66.9375 -37.515625 L 172.15625 -37.515625 L 172.15625 0 L 20.234375 0 L 20.234375 -226.640625 L 171.84375 -226.640625 L 171.84375 -188.8125 L 66.9375 -188.8125 L 66.9375 -134.796875 L 156.59375 -134.796875 Z M 156.59375 -98.21875 "/></g></g></g><g fill="#ffffff" fill-opacity="1"><g transform="translate(970.314019, 518.128929)"><g><path d="M 191.765625 -226.640625 L 191.765625 -77.359375 C 191.765625 -52.554688 184.003906 -32.941406 168.484375 -18.515625 C 152.972656 -4.097656 131.78125 3.109375 104.90625 3.109375 C 78.445312 3.109375 57.429688 -3.890625 41.859375 -17.890625 C 26.296875 -31.898438 18.363281 -51.148438 18.0625 -75.640625 L 18.0625 -226.640625 L 64.75 -226.640625 L 64.75 -77.046875 C 64.75 -62.210938 68.300781 -51.394531 75.40625 -44.59375 C 82.519531 -37.800781 92.351562 -34.40625 104.90625 -34.40625 C 131.164062 -34.40625 144.503906 -48.203125 144.921875 -75.796875 L 144.921875 -226.640625 Z M 191.765625 -226.640625 "/></g></g></g><g fill="#ffffff" fill-opacity="1"><g transform="translate(1216.15288, 518.128929)"><g><path d="M 137.75 -59.453125 C 137.75 -68.273438 134.632812 -75.046875 128.40625 -79.765625 C 122.1875 -84.492188 110.984375 -89.476562 94.796875 -94.71875 C 78.609375 -99.957031 65.789062 -105.117188 56.34375 -110.203125 C 30.613281 -124.109375 17.75 -142.835938 17.75 -166.390625 C 17.75 -178.640625 21.195312 -189.5625 28.09375 -199.15625 C 35 -208.757812 44.910156 -216.257812 57.828125 -221.65625 C 70.742188 -227.050781 85.242188 -229.75 101.328125 -229.75 C 117.515625 -229.75 131.9375 -226.816406 144.59375 -220.953125 C 157.257812 -215.085938 167.09375 -206.8125 174.09375 -196.125 C 181.101562 -185.4375 184.609375 -173.296875 184.609375 -159.703125 L 137.90625 -159.703125 C 137.90625 -170.078125 134.632812 -178.144531 128.09375 -183.90625 C 121.5625 -189.664062 112.378906 -192.546875 100.546875 -192.546875 C 89.140625 -192.546875 80.269531 -190.128906 73.9375 -185.296875 C 67.601562 -180.472656 64.4375 -174.117188 64.4375 -166.234375 C 64.4375 -158.867188 68.144531 -152.695312 75.5625 -147.71875 C 82.988281 -142.738281 93.910156 -138.066406 108.328125 -133.703125 C 134.898438 -125.710938 154.253906 -115.800781 166.390625 -103.96875 C 178.535156 -92.144531 184.609375 -77.410156 184.609375 -59.765625 C 184.609375 -40.160156 177.1875 -24.78125 162.34375 -13.625 C 147.507812 -2.46875 127.535156 3.109375 102.421875 3.109375 C 84.984375 3.109375 69.101562 -0.078125 54.78125 -6.453125 C 40.46875 -12.835938 29.546875 -21.582031 22.015625 -32.6875 C 14.492188 -43.789062 10.734375 -56.660156 10.734375 -71.296875 L 57.59375 -71.296875 C 57.59375 -46.285156 72.535156 -33.78125 102.421875 -33.78125 C 113.523438 -33.78125 122.1875 -36.035156 128.40625 -40.546875 C 134.632812 -45.054688 137.75 -51.359375 137.75 -59.453125 Z M 137.75 -59.453125 "/></g></g></g><g fill="#ffffff" fill-opacity="1"><g transform="translate(389.589185, 713.86145)"><g><path d="M 58.453125 -153.171875 L 38.84375 -153.171875 L 7.03125 -189.421875 L 34.53125 -189.421875 Z M 58.453125 -153.171875 "/></g></g></g></svg>