<svg xmlns="http://www.w3.org/2000/svg" xmlns:xlink="http://www.w3.org/1999/xlink" width="1920" zoomAndPan="magnify" viewBox="0 0 1440 809.999993" height="1080" preserveAspectRatio="xMidYMid meet" version="1.0"><defs><g/><clipPath id="16872b827f"><path d="M 411.953125 120.988281 L 547.339844 120.988281 L 547.339844 304.417969 L 411.953125 304.417969 Z M 411.953125 120.988281 " clip-rule="nonzero"/></clipPath></defs><g clip-path="url(#16872b827f)"><path fill="#ffffff" d="M 515.261719 167.199219 C 499.769531 144.71875 484.070312 126.214844 483.929688 126.027344 L 479.621094 120.988281 L 475.335938 126.027344 C 475.171875 126.214844 459.472656 144.71875 443.984375 167.175781 C 422.75 197.992188 411.992188 221.414062 411.992188 236.785156 C 411.992188 254.839844 419.03125 271.835938 431.8125 284.597656 C 444.59375 297.378906 461.566406 304.417969 479.644531 304.417969 C 497.699219 304.417969 514.695312 297.378906 527.476562 284.597656 C 540.257812 271.8125 547.296875 254.839844 547.296875 236.761719 C 547.25 221.414062 536.492188 197.992188 515.261719 167.199219 Z M 479.621094 293.140625 C 448.550781 293.140625 423.269531 267.859375 423.269531 236.785156 C 423.269531 227.839844 428.472656 209.621094 453.210938 173.671875 C 463.542969 158.679688 473.972656 145.472656 479.621094 138.527344 C 485.269531 145.449219 495.652344 158.605469 505.984375 173.578125 C 514.835938 186.433594 521.875 198.039062 526.886719 208.113281 C 532.914062 220.210938 535.976562 229.839844 535.976562 236.785156 C 536 267.859375 510.695312 293.140625 479.621094 293.140625 Z M 479.621094 293.140625 " fill-opacity="1" fill-rule="nonzero"/></g><path fill="#ffffff" d="M 484.140625 169.199219 C 486 166.703125 485.507812 163.175781 483.011719 161.3125 C 480.515625 159.453125 476.984375 159.949219 475.125 162.445312 C 464.15625 177.039062 454.199219 191.988281 447.066406 204.488281 C 438.640625 219.316406 434.542969 229.863281 434.542969 236.785156 C 434.542969 261.644531 454.765625 281.867188 479.621094 281.867188 C 482.730469 281.867188 485.246094 279.347656 485.246094 276.238281 C 485.246094 273.132812 482.730469 270.613281 479.621094 270.613281 C 460.980469 270.613281 445.796875 255.453125 445.796875 236.785156 C 445.796875 234.597656 446.878906 227.605469 456.859375 210.066406 C 463.757812 197.945312 473.429688 183.441406 484.140625 169.199219 Z M 484.140625 169.199219 " fill-opacity="1" fill-rule="nonzero"/><g fill="#ffffff" fill-opacity="1"><g transform="translate(235.341045, 288.690814)"><g><path d="M 103.765625 -32.703125 L 46.4375 -32.703125 L 35.53125 0 L 0.765625 0 L 59.84375 -158.6875 L 90.140625 -158.6875 L 149.546875 0 L 114.765625 0 Z M 55.265625 -59.1875 L 94.9375 -59.1875 L 74.984375 -118.578125 Z M 55.265625 -59.1875 "/></g></g></g><g fill="#ffffff" fill-opacity="1"><g transform="translate(410.739377, 288.690814)"><g/></g></g><g fill="#ffffff" fill-opacity="1"><g transform="translate(491.548031, 288.690814)"><g/></g></g><g fill="#ffffff" fill-opacity="1"><g transform="translate(572.353337, 288.690814)"><g><path d="M 134.28125 -158.6875 L 134.28125 -54.171875 C 134.28125 -36.804688 128.847656 -23.070312 117.984375 -12.96875 C 107.117188 -2.863281 92.28125 2.1875 73.46875 2.1875 C 54.9375 2.1875 40.21875 -2.71875 29.3125 -12.53125 C 18.414062 -22.34375 12.859375 -35.820312 12.640625 -52.96875 L 12.640625 -158.6875 L 45.34375 -158.6875 L 45.34375 -53.953125 C 45.34375 -43.554688 47.828125 -35.976562 52.796875 -31.21875 C 57.773438 -26.46875 64.664062 -24.09375 73.46875 -24.09375 C 91.84375 -24.09375 101.175781 -33.753906 101.46875 -53.078125 L 101.46875 -158.6875 Z M 134.28125 -158.6875 "/></g></g></g><g fill="#ffffff" fill-opacity="1"><g transform="translate(744.495604, 288.690814)"><g><path d="M 109.640625 -68.78125 L 46.875 -68.78125 L 46.875 -26.265625 L 120.546875 -26.265625 L 120.546875 0 L 14.171875 0 L 14.171875 -158.6875 L 120.328125 -158.6875 L 120.328125 -132.203125 L 46.875 -132.203125 L 46.875 -94.390625 L 109.640625 -94.390625 Z M 109.640625 -68.78125 "/></g></g></g><g fill="#ffffff" fill-opacity="1"><g transform="translate(895.275832, 288.690814)"><g><path d="M 134.28125 -158.6875 L 134.28125 -54.171875 C 134.28125 -36.804688 128.847656 -23.070312 117.984375 -12.96875 C 107.117188 -2.863281 92.28125 2.1875 73.46875 2.1875 C 54.9375 2.1875 40.21875 -2.71875 29.3125 -12.53125 C 18.414062 -22.34375 12.859375 -35.820312 12.640625 -52.96875 L 12.640625 -158.6875 L 45.34375 -158.6875 L 45.34375 -53.953125 C 45.34375 -43.554688 47.828125 -35.976562 52.796875 -31.21875 C 57.773438 -26.46875 64.664062 -24.09375 73.46875 -24.09375 C 91.84375 -24.09375 101.175781 -33.753906 101.46875 -53.078125 L 101.46875 -158.6875 Z M 134.28125 -158.6875 "/></g></g></g><g fill="#ffffff" fill-opacity="1"><g transform="translate(1067.418109, 288.690814)"><g><path d="M 96.453125 -41.640625 C 96.453125 -47.816406 94.269531 -52.554688 89.90625 -55.859375 C 85.550781 -59.160156 77.707031 -62.644531 66.375 -66.3125 C 55.039062 -69.988281 46.066406 -73.609375 39.453125 -77.171875 C 21.429688 -86.898438 12.421875 -100.015625 12.421875 -116.515625 C 12.421875 -125.085938 14.835938 -132.734375 19.671875 -139.453125 C 24.503906 -146.179688 31.441406 -151.429688 40.484375 -155.203125 C 49.535156 -158.984375 59.691406 -160.875 70.953125 -160.875 C 82.285156 -160.875 92.382812 -158.820312 101.25 -154.71875 C 110.113281 -150.613281 117 -144.816406 121.90625 -137.328125 C 126.8125 -129.847656 129.265625 -121.347656 129.265625 -111.828125 L 96.5625 -111.828125 C 96.5625 -119.097656 94.269531 -124.75 89.6875 -128.78125 C 85.113281 -132.8125 78.6875 -134.828125 70.40625 -134.828125 C 62.414062 -134.828125 56.203125 -133.132812 51.765625 -129.75 C 47.335938 -126.375 45.125 -121.925781 45.125 -116.40625 C 45.125 -111.25 47.71875 -106.925781 52.90625 -103.4375 C 58.101562 -99.945312 65.753906 -96.675781 75.859375 -93.625 C 94.460938 -88.03125 108.015625 -81.085938 116.515625 -72.796875 C 125.015625 -64.515625 129.265625 -54.203125 129.265625 -41.859375 C 129.265625 -28.117188 124.066406 -17.34375 113.671875 -9.53125 C 103.285156 -1.71875 89.300781 2.1875 71.71875 2.1875 C 59.507812 2.1875 48.390625 -0.046875 38.359375 -4.515625 C 28.335938 -8.984375 20.691406 -15.101562 15.421875 -22.875 C 10.148438 -30.65625 7.515625 -39.671875 7.515625 -49.921875 L 40.328125 -49.921875 C 40.328125 -32.410156 50.789062 -23.65625 71.71875 -23.65625 C 79.488281 -23.65625 85.550781 -25.234375 89.90625 -28.390625 C 94.269531 -31.554688 96.453125 -35.972656 96.453125 -41.640625 Z M 96.453125 -41.640625 "/></g></g></g><g fill="#ffffff" fill-opacity="1"><g transform="translate(488.638372, 425.747449)"><g><path d="M 40.921875 -107.25 L 27.203125 -107.25 L 4.921875 -132.640625 L 24.171875 -132.640625 Z M 40.921875 -107.25 "/></g></g></g><g fill="#ffffff" fill-opacity="1"><g transform="translate(370.551199, 429.325868)"><g><path d="M 8.410156 -4.058594 L 8.410156 -39.4375 L 4.351562 -39.4375 L 4.351562 0 L 22.503906 0 L 22.503906 -4.058594 Z M 8.410156 -4.058594 "/></g></g></g><g fill="#ffffff" fill-opacity="1"><g transform="translate(394.213631, 429.325868)"><g><path d="M 27.78125 0 L 27.78125 -3.769531 L 8.410156 -3.769531 L 8.410156 -17.804688 L 27.199219 -17.804688 L 27.199219 -21.632812 L 8.410156 -21.632812 L 8.410156 -35.667969 L 27.78125 -35.667969 L 27.78125 -39.4375 L 4.351562 -39.4375 L 4.351562 0 Z M 27.78125 0 "/></g></g></g><g fill="#ffffff" fill-opacity="1"><g transform="translate(426.3435, 429.325868)"><g><path d="M 15.253906 -18.558594 C 20.355469 -17.339844 23.835938 -16.007812 25.691406 -14.5 C 26.96875 -13.457031 27.605469 -12.121094 27.605469 -10.496094 C 27.605469 -8.875 27.257812 -7.539062 26.5625 -6.613281 C 24.824219 -4.175781 21.691406 -2.957031 17.285156 -2.957031 C 11.136719 -2.957031 7.65625 -5.046875 6.902344 -9.222656 L 2.144531 -9.222656 C 3.539062 -2.550781 8.582031 0.753906 17.285156 0.753906 C 21.167969 0.753906 24.417969 -0.0585938 27.027344 -1.796875 C 30.160156 -3.828125 31.78125 -6.84375 31.78125 -10.789062 C 31.78125 -14.035156 30.507812 -16.527344 27.953125 -18.269531 C 26.15625 -19.546875 23.257812 -20.707031 19.253906 -21.75 C 15.195312 -22.792969 12.585938 -23.664062 11.367188 -24.300781 C 8.699219 -25.636719 7.367188 -27.492188 7.421875 -29.925781 C 7.421875 -31.203125 7.65625 -32.304688 8.234375 -33.117188 C 9.742188 -35.378906 12.410156 -36.539062 16.238281 -36.539062 C 21.632812 -36.539062 24.707031 -34.796875 25.519531 -31.433594 L 29.925781 -31.433594 C 28.476562 -37.117188 23.894531 -40.019531 16.238281 -40.019531 C 12.757812 -40.019531 9.6875 -39.089844 7.132812 -37.234375 C 4.523438 -35.378906 3.191406 -32.652344 3.191406 -28.941406 C 3.191406 -23.894531 7.25 -20.414062 15.253906 -18.558594 Z M 15.253906 -18.558594 "/></g></g></g><g fill="#ffffff" fill-opacity="1"><g transform="translate(459.633286, 429.325868)"><g><path d="M 15.253906 -18.558594 C 20.355469 -17.339844 23.835938 -16.007812 25.691406 -14.5 C 26.96875 -13.457031 27.605469 -12.121094 27.605469 -10.496094 C 27.605469 -8.875 27.257812 -7.539062 26.5625 -6.613281 C 24.824219 -4.175781 21.691406 -2.957031 17.285156 -2.957031 C 11.136719 -2.957031 7.65625 -5.046875 6.902344 -9.222656 L 2.144531 -9.222656 C 3.539062 -2.550781 8.582031 0.753906 17.285156 0.753906 C 21.167969 0.753906 24.417969 -0.0585938 27.027344 -1.796875 C 30.160156 -3.828125 31.78125 -6.84375 31.78125 -10.789062 C 31.78125 -14.035156 30.507812 -16.527344 27.953125 -18.269531 C 26.15625 -19.546875 23.257812 -20.707031 19.253906 -21.75 C 15.195312 -22.792969 12.585938 -23.664062 11.367188 -24.300781 C 8.699219 -25.636719 7.367188 -27.492188 7.421875 -29.925781 C 7.421875 -31.203125 7.65625 -32.304688 8.234375 -33.117188 C 9.742188 -35.378906 12.410156 -36.539062 16.238281 -36.539062 C 21.632812 -36.539062 24.707031 -34.796875 25.519531 -31.433594 L 29.925781 -31.433594 C 28.476562 -37.117188 23.894531 -40.019531 16.238281 -40.019531 C 12.757812 -40.019531 9.6875 -39.089844 7.132812 -37.234375 C 4.523438 -35.378906 3.191406 -32.652344 3.191406 -28.941406 C 3.191406 -23.894531 7.25 -20.414062 15.253906 -18.558594 Z M 15.253906 -18.558594 "/></g></g></g><g fill="#ffffff" fill-opacity="1"><g transform="translate(492.923071, 429.325868)"><g/></g></g><g fill="#ffffff" fill-opacity="1"><g transform="translate(508.582033, 429.325868)"><g><path d="M 35.667969 3.191406 L 44.832031 -39.4375 L 40.714844 -39.4375 L 34.566406 -10.789062 L 22.734375 -41.757812 L 10.84375 -10.789062 L 4.753906 -39.4375 L 0.578125 -39.4375 L 9.800781 3.191406 L 22.734375 -31.144531 Z M 35.667969 3.191406 "/></g></g></g><g fill="#ffffff" fill-opacity="1"><g transform="translate(553.993022, 429.325868)"><g><path d="M 10.730469 -14.5 L 17.921875 -32.652344 L 25.054688 -14.5 Z M 35.203125 0 L 17.921875 -42.164062 L 0.578125 0 L 4.988281 0 L 9.222656 -10.730469 L 26.5625 -10.730469 L 30.796875 0 Z M 35.203125 0 "/></g></g></g><g fill="#ffffff" fill-opacity="1"><g transform="translate(589.776636, 429.325868)"><g><path d="M 1.160156 -35.785156 L 10.730469 -35.785156 L 10.730469 -0.117188 L 14.789062 -0.117188 L 14.789062 -35.785156 L 24.359375 -35.785156 L 24.359375 -39.554688 L 1.160156 -39.554688 Z M 1.160156 -35.785156 "/></g></g></g><g fill="#ffffff" fill-opacity="1"><g transform="translate(615.294945, 429.325868)"><g><path d="M 27.78125 0 L 27.78125 -3.769531 L 8.410156 -3.769531 L 8.410156 -17.804688 L 27.199219 -17.804688 L 27.199219 -21.632812 L 8.410156 -21.632812 L 8.410156 -35.667969 L 27.78125 -35.667969 L 27.78125 -39.4375 L 4.351562 -39.4375 L 4.351562 0 Z M 27.78125 0 "/></g></g></g><g fill="#ffffff" fill-opacity="1"><g transform="translate(647.424826, 429.325868)"><g><path d="M 8.410156 -19.488281 L 8.410156 -35.550781 L 17.574219 -35.550781 C 19.949219 -35.550781 21.863281 -34.796875 23.316406 -33.289062 C 24.707031 -31.78125 25.460938 -29.925781 25.460938 -27.605469 C 25.460938 -25.285156 24.707031 -23.371094 23.199219 -21.808594 C 21.691406 -20.242188 19.835938 -19.488281 17.574219 -19.488281 Z M 29.519531 -27.546875 C 29.519531 -30.914062 28.246094 -33.8125 25.808594 -36.074219 C 23.429688 -38.277344 20.472656 -39.4375 16.992188 -39.4375 L 4.351562 -39.4375 L 4.351562 0 L 8.410156 0 L 8.410156 -15.601562 L 13.109375 -15.601562 L 24.707031 0 L 30.160156 0 L 17.980469 -15.601562 C 21.054688 -15.773438 23.664062 -16.878906 25.808594 -18.90625 C 28.246094 -21.167969 29.519531 -24.070312 29.519531 -27.546875 Z M 29.519531 -27.546875 "/></g></g></g><g fill="#ffffff" fill-opacity="1"><g transform="translate(678.974721, 429.325868)"><g><path d="M 11.832031 -6.84375 L 6.265625 -6.84375 L 2.898438 8.175781 L 5.335938 8.175781 Z M 11.832031 -6.84375 "/></g></g></g><g fill="#ffffff" fill-opacity="1"><g transform="translate(692.429814, 429.325868)"><g/></g></g><g fill="#ffffff" fill-opacity="1"><g transform="translate(708.088764, 429.325868)"><g><path d="M 40.714844 0 L 44.832031 0 L 35.667969 -42.046875 L 22.734375 -8.292969 L 9.800781 -42.046875 L 0.578125 0 L 4.753906 0 L 10.84375 -28.070312 L 22.734375 2.320312 L 34.566406 -28.070312 Z M 40.714844 0 "/></g></g></g><g fill="#ffffff" fill-opacity="1"><g transform="translate(753.499742, 429.325868)"><g><path d="M 39.089844 -19.835938 C 39.089844 -15.3125 37.464844 -11.484375 34.335938 -8.351562 C 31.144531 -5.160156 27.316406 -3.597656 22.851562 -3.597656 C 18.386719 -3.597656 14.558594 -5.160156 11.425781 -8.351562 C 8.234375 -11.484375 6.667969 -15.3125 6.667969 -19.835938 C 6.667969 -24.242188 8.234375 -28.070312 11.425781 -31.261719 C 14.558594 -34.390625 18.386719 -36.015625 22.851562 -36.015625 C 27.316406 -36.015625 31.144531 -34.390625 34.335938 -31.261719 C 37.464844 -28.070312 39.089844 -24.242188 39.089844 -19.835938 Z M 43.148438 -19.835938 C 43.148438 -22.617188 42.570312 -25.230469 41.527344 -27.722656 C 40.480469 -30.160156 39.03125 -32.304688 37.175781 -34.160156 C 35.320312 -35.957031 33.175781 -37.410156 30.738281 -38.453125 C 28.246094 -39.496094 25.636719 -40.078125 22.851562 -40.078125 C 20.066406 -40.078125 17.398438 -39.496094 14.964844 -38.453125 C 12.527344 -37.410156 10.382812 -35.957031 8.527344 -34.160156 C 6.667969 -32.304688 5.21875 -30.160156 4.175781 -27.722656 C 3.132812 -25.230469 2.609375 -22.617188 2.609375 -19.835938 C 2.609375 -17.050781 3.132812 -14.382812 4.175781 -11.949219 C 5.21875 -9.453125 6.667969 -7.308594 8.527344 -5.453125 C 10.382812 -3.597656 12.527344 -2.144531 14.964844 -1.101562 C 17.398438 -0.0585938 20.066406 0.464844 22.851562 0.464844 C 25.636719 0.464844 28.246094 -0.0585938 30.738281 -1.101562 C 33.175781 -2.144531 35.320312 -3.597656 37.175781 -5.453125 C 39.03125 -7.308594 40.480469 -9.453125 41.527344 -11.949219 C 42.570312 -14.382812 43.148438 -17.050781 43.148438 -19.835938 Z M 43.148438 -19.835938 "/></g></g></g><g fill="#ffffff" fill-opacity="1"><g transform="translate(799.258712, 429.325868)"><g><path d="M 8.410156 -19.488281 L 8.410156 -35.550781 L 17.574219 -35.550781 C 19.949219 -35.550781 21.863281 -34.796875 23.316406 -33.289062 C 24.707031 -31.78125 25.460938 -29.925781 25.460938 -27.605469 C 25.460938 -25.285156 24.707031 -23.371094 23.199219 -21.808594 C 21.691406 -20.242188 19.835938 -19.488281 17.574219 -19.488281 Z M 29.519531 -27.546875 C 29.519531 -30.914062 28.246094 -33.8125 25.808594 -36.074219 C 23.429688 -38.277344 20.472656 -39.4375 16.992188 -39.4375 L 4.351562 -39.4375 L 4.351562 0 L 8.410156 0 L 8.410156 -15.601562 L 13.109375 -15.601562 L 24.707031 0 L 30.160156 0 L 17.980469 -15.601562 C 21.054688 -15.773438 23.664062 -16.878906 25.808594 -18.90625 C 28.246094 -21.167969 29.519531 -24.070312 29.519531 -27.546875 Z M 29.519531 -27.546875 "/></g></g></g><g fill="#ffffff" fill-opacity="1"><g transform="translate(830.808606, 429.325868)"><g><path d="M 27.78125 0 L 27.78125 -3.769531 L 8.410156 -3.769531 L 8.410156 -17.804688 L 27.199219 -17.804688 L 27.199219 -21.632812 L 8.410156 -21.632812 L 8.410156 -35.667969 L 27.78125 -35.667969 L 27.78125 -39.4375 L 4.351562 -39.4375 L 4.351562 0 Z M 27.78125 0 "/></g></g></g><g fill="#ffffff" fill-opacity="1"><g transform="translate(862.938488, 429.325868)"><g/></g></g><g fill="#ffffff" fill-opacity="1"><g transform="translate(878.597437, 429.325868)"><g><path d="M 27.78125 -35.667969 L 27.78125 -39.4375 L 4.351562 -39.4375 L 4.351562 0 L 8.410156 0 L 8.410156 -17.804688 L 27.199219 -17.804688 L 27.199219 -21.632812 L 8.410156 -21.632812 L 8.410156 -35.667969 Z M 27.78125 -35.667969 "/></g></g></g><g fill="#ffffff" fill-opacity="1"><g transform="translate(907.53753, 429.325868)"><g><path d="M 32.882812 -13.050781 L 32.882812 -39.4375 L 28.824219 -39.4375 L 28.824219 -12.46875 C 28.824219 -10.84375 28.535156 -9.511719 27.953125 -8.410156 C 26.273438 -5.160156 23.023438 -3.539062 18.210938 -3.539062 C 15.078125 -3.539062 12.585938 -4.234375 10.730469 -5.625 C 8.582031 -7.191406 7.539062 -9.453125 7.539062 -12.46875 L 7.539062 -39.4375 L 3.480469 -39.4375 L 3.480469 -13.050781 C 3.480469 -8.757812 4.871094 -5.394531 7.65625 -2.957031 C 10.265625 -0.636719 13.804688 0.523438 18.210938 0.523438 C 22.5625 0.523438 26.039062 -0.636719 28.707031 -2.957031 C 31.492188 -5.394531 32.882812 -8.757812 32.882812 -13.050781 Z M 32.882812 -13.050781 "/></g></g></g><g fill="#ffffff" fill-opacity="1"><g transform="translate(943.90113, 429.325868)"><g><path d="M 1.160156 -35.785156 L 10.730469 -35.785156 L 10.730469 -0.117188 L 14.789062 -0.117188 L 14.789062 -35.785156 L 24.359375 -35.785156 L 24.359375 -39.554688 L 1.160156 -39.554688 Z M 1.160156 -35.785156 "/></g></g></g><g fill="#ffffff" fill-opacity="1"><g transform="translate(969.419439, 429.325868)"><g><path d="M 32.882812 -13.050781 L 32.882812 -39.4375 L 28.824219 -39.4375 L 28.824219 -12.46875 C 28.824219 -10.84375 28.535156 -9.511719 27.953125 -8.410156 C 26.273438 -5.160156 23.023438 -3.539062 18.210938 -3.539062 C 15.078125 -3.539062 12.585938 -4.234375 10.730469 -5.625 C 8.582031 -7.191406 7.539062 -9.453125 7.539062 -12.46875 L 7.539062 -39.4375 L 3.480469 -39.4375 L 3.480469 -13.050781 C 3.480469 -8.757812 4.871094 -5.394531 7.65625 -2.957031 C 10.265625 -0.636719 13.804688 0.523438 18.210938 0.523438 C 22.5625 0.523438 26.039062 -0.636719 28.707031 -2.957031 C 31.492188 -5.394531 32.882812 -8.757812 32.882812 -13.050781 Z M 32.882812 -13.050781 "/></g></g></g><g fill="#ffffff" fill-opacity="1"><g transform="translate(1005.783039, 429.325868)"><g><path d="M 8.410156 -19.488281 L 8.410156 -35.550781 L 17.574219 -35.550781 C 19.949219 -35.550781 21.863281 -34.796875 23.316406 -33.289062 C 24.707031 -31.78125 25.460938 -29.925781 25.460938 -27.605469 C 25.460938 -25.285156 24.707031 -23.371094 23.199219 -21.808594 C 21.691406 -20.242188 19.835938 -19.488281 17.574219 -19.488281 Z M 29.519531 -27.546875 C 29.519531 -30.914062 28.246094 -33.8125 25.808594 -36.074219 C 23.429688 -38.277344 20.472656 -39.4375 16.992188 -39.4375 L 4.351562 -39.4375 L 4.351562 0 L 8.410156 0 L 8.410156 -15.601562 L 13.109375 -15.601562 L 24.707031 0 L 30.160156 0 L 17.980469 -15.601562 C 21.054688 -15.773438 23.664062 -16.878906 25.808594 -18.90625 C 28.246094 -21.167969 29.519531 -24.070312 29.519531 -27.546875 Z M 29.519531 -27.546875 "/></g></g></g><g fill="#ffffff" fill-opacity="1"><g transform="translate(1037.332933, 429.325868)"><g><path d="M 27.78125 0 L 27.78125 -3.769531 L 8.410156 -3.769531 L 8.410156 -17.804688 L 27.199219 -17.804688 L 27.199219 -21.632812 L 8.410156 -21.632812 L 8.410156 -35.667969 L 27.78125 -35.667969 L 27.78125 -39.4375 L 4.351562 -39.4375 L 4.351562 0 Z M 27.78125 0 "/></g></g></g></svg>